<svg width="1693" height="944" xmlns="http://www.w3.org/2000/svg" xmlns:xlink="http://www.w3.org/1999/xlink" xml:space="preserve" overflow="hidden"><defs><clipPath id="clip0"><rect x="55" y="2687" width="1693" height="944"/></clipPath><linearGradient x1="802.318" y1="3358.71" x2="533.682" y2="3253.29" gradientUnits="userSpaceOnUse" spreadMethod="reflect" id="fill1"><stop offset="0" stop-color="#95ABEA"/><stop offset="0.5" stop-color="#BFCBF0"/><stop offset="1" stop-color="#E0E5F7"/></linearGradient><linearGradient x1="1491.09" y1="3330.32" x2="1214.91" y2="3233.68" gradientUnits="userSpaceOnUse" spreadMethod="reflect" id="fill2"><stop offset="0" stop-color="#95ABEA"/><stop offset="0.5" stop-color="#BFCBF0"/><stop offset="1" stop-color="#E0E5F7"/></linearGradient></defs><g clip-path="url(#clip0)" transform="translate(-55 -2687)"><rect x="56" y="2688" width="1690" height="941" fill="#FFFFFF"/><g><path d="M325.5 3442.61 1695.5 3442.61M325.5 3380.61 1695.5 3380.61M325.5 3318.61 1695.5 3318.61M325.5 3257.61 1695.5 3257.61M325.5 3195.6 1695.5 3195.6M325.5 3133.6 1695.5 3133.6M325.5 3072.6 1695.5 3072.6M325.5 3010.6 1695.5 3010.6M325.5 2948.6 1695.5 2948.6M325.5 2887.5 1695.5 2887.5" stroke="#D9D9D9" stroke-width="3.4375" stroke-linejoin="round" stroke-miterlimit="10" fill="none"/></g><g><rect x="590.5" y="3108.5" width="155" height="395" stroke="#4472C4" stroke-width="3.4375" stroke-linejoin="round" stroke-miterlimit="10" fill="url(#fill1)"/></g><g><rect x="1275.5" y="3060.5" width="155" height="443" stroke="#4472C4" stroke-width="3.4375" stroke-linejoin="round" stroke-miterlimit="10" fill="url(#fill2)"/></g><g><path d="M668.522 3108.6 668.522 3124.5M668.522 3108.6 668.522 3092.5M657.5 3124.5 678.5 3124.5M657.5 3092.5 678.5 3092.5" stroke="#595959" stroke-width="3.4375" stroke-linejoin="round" stroke-miterlimit="10" fill="none"/></g><g><path d="M1353.54 3059.6 1353.54 3086.5M1353.54 3059.6 1353.54 3033.5M1342.5 3086.5 1363.5 3086.5M1342.5 3033.5 1363.5 3033.5" stroke="#595959" stroke-width="3.4375" stroke-linejoin="round" stroke-miterlimit="10" fill="none"/></g><g><path d="M325.5 3503.5 1695.5 3503.5" stroke="#D9D9D9" stroke-width="3.4375" stroke-linejoin="round" stroke-miterlimit="10" fill="none" fill-rule="evenodd"/></g><g><text fill="#595959" font-family="Calibri,Calibri_MSFontService,sans-serif" font-weight="400" font-size="41" transform="matrix(1 0 0 1 266.567 3515)">0</text></g><g><text fill="#595959" font-family="Calibri,Calibri_MSFontService,sans-serif" font-weight="400" font-size="41" transform="matrix(1 0 0 1 224.767 3454)">100</text></g><g><text fill="#595959" font-family="Calibri,Calibri_MSFontService,sans-serif" font-weight="400" font-size="41" transform="matrix(1 0 0 1 224.767 3392)">200</text></g><g><text fill="#595959" font-family="Calibri,Calibri_MSFontService,sans-serif" font-weight="400" font-size="41" transform="matrix(1 0 0 1 224.767 3330)">300</text></g><g><text fill="#595959" font-family="Calibri,Calibri_MSFontService,sans-serif" font-weight="400" font-size="41" transform="matrix(1 0 0 1 224.767 3269)">400</text></g><g><text fill="#595959" font-family="Calibri,Calibri_MSFontService,sans-serif" font-weight="400" font-size="41" transform="matrix(1 0 0 1 224.767 3207)">500</text></g><g><text fill="#595959" font-family="Calibri,Calibri_MSFontService,sans-serif" font-weight="400" font-size="41" transform="matrix(1 0 0 1 224.767 3145)">600</text></g><g><text fill="#595959" font-family="Calibri,Calibri_MSFontService,sans-serif" font-weight="400" font-size="41" transform="matrix(1 0 0 1 224.767 3084)">700</text></g><g><text fill="#595959" font-family="Calibri,Calibri_MSFontService,sans-serif" font-weight="400" font-size="41" transform="matrix(1 0 0 1 224.767 3022)">800</text></g><g><text fill="#595959" font-family="Calibri,Calibri_MSFontService,sans-serif" font-weight="400" font-size="41" transform="matrix(1 0 0 1 224.767 2960)">900</text></g><g><text fill="#595959" font-family="Calibri,Calibri_MSFontService,sans-serif" font-weight="400" font-size="41" transform="matrix(1 0 0 1 203.867 2899)">1000</text></g><g><text fill="#595959" font-family="Yu Gothic,Yu Gothic_MSFontService,sans-serif" font-weight="400" font-size="41" transform="matrix(1 0 0 1 536.156 3579)">一致</text></g><g><text fill="#595959" font-family="Calibri,Calibri_MSFontService,sans-serif" font-weight="400" font-size="41" transform="matrix(1 0 0 1 627.983 3579)">congruent</text></g><g><text fill="#595959" font-family="Yu Gothic,Yu Gothic_MSFontService,sans-serif" font-weight="400" font-size="41" transform="matrix(1 0 0 1 1185.01 3579)">不一致</text></g><g><text fill="#595959" font-family="Calibri,Calibri_MSFontService,sans-serif" font-weight="400" font-size="41" transform="matrix(1 0 0 1 1318.09 3579)">incongruent</text></g><g><text fill="#595959" font-family="Yu Gothic,Yu Gothic_MSFontService,sans-serif" font-weight="400" font-size="46" writing-mode="tb-rl" transform="matrix(1 2.95822e-25 -2.95822e-25 1 136.121 3042)" x="15.7002" y="5.52539">反応時間</text></g><g><text fill="#595959" font-family="Calibri,Calibri_MSFontService,sans-serif" font-weight="400" font-size="46" transform="matrix(6.12323e-17 1 -1 6.12323e-17 136.121 3225)">(msec)</text></g><g><text fill="#595959" font-family="Yu Gothic,Yu Gothic_MSFontService,sans-serif" font-weight="400" font-size="64" transform="matrix(1 0 0 1 676.615 2798)">平均と誤差範囲</text></g><rect x="56.4999" y="2688.5" width="1690" height="941" stroke="#D9D9D9" stroke-width="3.4375" stroke-linejoin="round" stroke-miterlimit="10" fill="none"/></g></svg>